<svg id="Layer_1" data-name="Layer 1" xmlns="http://www.w3.org/2000/svg" viewBox="0 0 6.16 9.21"><defs><style>.cls-1{fill:#e07784;}</style></defs><path d="M10.1,7.94a3.65,3.65,0,0,0-.81-.43L8.13,7c-.76-.29-1.39-.57-1.39-1.17s.5-.93,1.28-.93a2.71,2.71,0,0,1,1.36.36.74.74,0,0,0,1-.17h0A.74.74,0,0,0,10.19,4,4,4,0,0,0,8,3.39C6.23,3.39,5,4.51,5,6a2.29,2.29,0,0,0,.57,1.55,4.7,4.7,0,0,1,.85.31A4.75,4.75,0,0,0,10.1,7.94Z" transform="translate(-4.92 -3.39)"/><path class="cls-1" d="M7.94,8.85c.8.35,1.33.53,1.33,1.2s-.49,1-1.42,1a3.16,3.16,0,0,1-1.68-.55.81.81,0,0,0-1.06.15h0a.81.81,0,0,0,.16,1.19,4.75,4.75,0,0,0,2.55.75c2,0,3.26-1.24,3.26-2.69a2.22,2.22,0,0,0-1-2,4.75,4.75,0,0,1-3.73-.12,4.7,4.7,0,0,0-.85-.31,3.42,3.42,0,0,0,1.23.84Z" transform="translate(-4.92 -3.39)"/><path class="cls-1" d="M5,7" transform="translate(-4.92 -3.39)"/></svg>